<svg width="39" height="31" viewBox="0 0 39 31" fill="none" xmlns="http://www.w3.org/2000/svg">
<path d="M6.71533 2.7C7.64867 1.43333 8.682 0.73333 9.81533 0.599994C10.9487 0.466663 11.9153 0.699997 12.7153 1.3C13.582 1.83333 14.0487 2.66666 14.1153 3.79999C14.2487 4.93333 13.782 6.13333 12.7153 7.4C11.182 9.2 10.1487 11 9.61533 12.8C9.082 14.6 8.81533 16.2 8.81533 17.6L8.41533 13.6C11.082 13.6 13.2487 14.3667 14.9153 15.9C16.582 17.4333 17.4153 19.5 17.4153 22.1C17.4153 24.5667 16.6487 26.6 15.1153 28.2C13.582 29.7333 11.482 30.5 8.81533 30.5C6.082 30.5 3.94867 29.6 2.41533 27.8C0.881999 25.9333 0.115332 23.3667 0.115332 20.1C0.115332 18.3667 0.281999 16.6 0.615332 14.8C0.948666 12.9333 1.582 11.0333 2.51533 9.1C3.51533 7.1 4.91533 4.96666 6.71533 2.7ZM27.9153 2.7C28.8487 1.43333 29.882 0.73333 31.0153 0.599994C32.1487 0.466663 33.1153 0.699997 33.9153 1.3C34.782 1.83333 35.2487 2.66666 35.3153 3.79999C35.4487 4.93333 34.982 6.13333 33.9153 7.4C32.382 9.2 31.3487 11 30.8153 12.8C30.282 14.6 30.0153 16.2 30.0153 17.6L29.6153 13.6C32.282 13.6 34.4487 14.3667 36.1153 15.9C37.782 17.4333 38.6153 19.5 38.6153 22.1C38.6153 24.5667 37.8487 26.6 36.3153 28.2C34.782 29.7333 32.682 30.5 30.0153 30.5C27.282 30.5 25.1487 29.6 23.6153 27.8C22.082 25.9333 21.3153 23.3667 21.3153 20.1C21.3153 18.3667 21.482 16.6 21.8153 14.8C22.1487 12.9333 22.782 11.0333 23.7153 9.1C24.7153 7.1 26.1153 4.96666 27.9153 2.7Z" fill="white"/>
</svg>
