<svg width="140" height="29" viewBox="0 0 140 29" fill="none" xmlns="http://www.w3.org/2000/svg">
<path d="M12.8972 6.22666C13.4959 4.38404 16.1027 4.38404 16.7014 6.22666L17.4935 8.66435C17.7612 9.4884 18.5291 10.0463 19.3956 10.0463H21.9587C23.8962 10.0463 24.7017 12.5256 23.1343 13.6644L21.0607 15.1709C20.3597 15.6802 20.0664 16.583 20.3341 17.407L21.1262 19.8447C21.7249 21.6873 19.6159 23.2196 18.0485 22.0808L15.9749 20.5742C15.2739 20.0649 14.3247 20.0649 13.6237 20.5742L11.5501 22.0808C9.98269 23.2196 7.87373 21.6873 8.47243 19.8447L9.26449 17.407C9.53224 16.583 9.23892 15.6802 8.53795 15.1709L6.46432 13.6644C4.89689 12.5255 5.70244 10.0463 7.63989 10.0463H10.203C11.0695 10.0463 11.8374 9.4884 12.1051 8.66435L12.8972 6.22666Z" fill="#FFB422"/>
<path d="M68.3908 6.46391C68.9765 4.59454 71.6221 4.59454 72.2078 6.46392L72.891 8.64429C73.1524 9.47852 73.9253 10.0463 74.7995 10.0463H77.1606C79.0804 10.0463 79.8974 12.4884 78.3641 13.6437L76.3303 15.176C75.6547 15.6851 75.3724 16.5641 75.6253 17.3714L76.3724 19.7557C76.9537 21.6112 74.8133 23.1212 73.2603 21.9511L71.5028 20.6269C70.7903 20.09 69.8083 20.09 69.0958 20.6269L67.3383 21.9511C65.7853 23.1211 63.6449 21.6112 64.2263 19.7557L64.9733 17.3714C65.2262 16.5641 64.944 15.6851 64.2683 15.176L62.2345 13.6437C60.7013 12.4884 61.5183 10.0463 63.4381 10.0463H65.7991C66.6734 10.0463 67.4463 9.47852 67.7077 8.64429L68.3908 6.46391Z" fill="#FFB422"/>
<path d="M124.848 6.53567C125.148 5.61437 126.451 5.61436 126.75 6.53568L127.542 8.97337C127.944 10.2094 129.096 11.0463 130.396 11.0463H132.959C133.927 11.0463 134.33 12.2859 133.547 12.8553L131.473 14.3619C130.421 15.1258 129.981 16.4799 130.383 17.716L131.175 20.1537C131.474 21.075 130.42 21.8411 129.636 21.2717L127.563 19.7652C126.511 19.0012 125.087 19.0012 124.036 19.7652L121.962 21.2717C121.179 21.8411 120.124 21.075 120.423 20.1537L121.216 17.716C121.617 16.4799 121.177 15.1258 120.126 14.3619L118.052 12.8553C117.268 12.2859 117.671 11.0463 118.64 11.0463H121.203C122.503 11.0463 123.655 10.2094 124.056 8.97337L124.848 6.53567Z" stroke="#FFC226" stroke-width="2"/>
<path d="M40.8972 6.22666C41.4959 4.38404 44.1027 4.38404 44.7014 6.22666L45.4935 8.66435C45.7612 9.4884 46.5291 10.0463 47.3956 10.0463H49.9587C51.8962 10.0463 52.7017 12.5256 51.1343 13.6644L49.0607 15.1709C48.3597 15.6802 48.0664 16.583 48.3341 17.407L49.1262 19.8447C49.7249 21.6873 47.6159 23.2196 46.0485 22.0808L43.9749 20.5742C43.2739 20.0649 42.3247 20.0649 41.6237 20.5742L39.5501 22.0808C37.9827 23.2196 35.8737 21.6873 36.4724 19.8447L37.2645 17.407C37.5322 16.583 37.2389 15.6802 36.5379 15.1709L34.4643 13.6644C32.8969 12.5255 33.7024 10.0463 35.6399 10.0463H38.203C39.0695 10.0463 39.8374 9.4884 40.1051 8.66435L40.8972 6.22666Z" fill="#FFB422"/>
<path d="M95.8972 6.22666C96.4959 4.38404 99.1027 4.38404 99.7014 6.22666L100.493 8.66435C100.761 9.4884 101.529 10.0463 102.396 10.0463H104.959C106.896 10.0463 107.702 12.5256 106.134 13.6644L104.061 15.1709C103.36 15.6802 103.066 16.583 103.334 17.407L104.126 19.8447C104.725 21.6873 102.616 23.2196 101.049 22.0808L98.9749 20.5742C98.2739 20.0649 97.3247 20.0649 96.6237 20.5742L94.5501 22.0808C92.9827 23.2196 90.8737 21.6873 91.4724 19.8447L92.2645 17.407C92.5322 16.583 92.2389 15.6802 91.5379 15.1709L89.4643 13.6644C87.8969 12.5255 88.7024 10.0463 90.6399 10.0463H93.203C94.0695 10.0463 94.8374 9.4884 95.1051 8.66435L95.8972 6.22666Z" fill="#FFB422"/>
<mask id="mask0_1_625" style="mask-type:alpha" maskUnits="userSpaceOnUse" x="116" y="4" width="19" height="19">
<path d="M123.887 5.8541C124.486 4.01148 127.093 4.01148 127.692 5.8541L128.486 8.29862C128.754 9.12267 129.521 9.68059 130.388 9.68059H132.958C134.896 9.68059 135.701 12.1598 134.134 13.2986L132.054 14.8094C131.353 15.3187 131.06 16.2214 131.328 17.0455L132.122 19.49C132.721 21.3326 130.612 22.8649 129.044 21.7261L126.965 20.2153C126.264 19.706 125.315 19.706 124.614 20.2153L122.534 21.7261C120.967 22.8649 118.858 21.3326 119.457 19.49L120.251 17.0455C120.519 16.2214 120.225 15.3187 119.524 14.8094L117.445 13.2986C115.878 12.1598 116.683 9.68059 118.621 9.68059H121.191C122.057 9.68059 122.825 9.12267 123.093 8.29862L123.887 5.8541Z" fill="#FFB422"/>
</mask>
<g mask="url(#mask0_1_625)">
<rect x="114.526" y="0.549561" width="10.9881" height="25.2727" rx="2" fill="#FFB422"/>
</g>
</svg>
